/* XPM */
static char *d3c0ac894a664d12c33016a2fa5bd477yse1YAQNzQW10akJ[] = {
/* columns rows colors chars-per-pixel */
"50 50 165 2 ",
"   c #231F17",
".  c #272219",
"X  c #33291A",
"o  c #3C3327",
"O  c #4F3D20",
"+  c #513F21",
"@  c #564324",
"#  c #5B4623",
"$  c #5D4E3B",
"%  c #675437",
"&  c #695435",
"*  c #4E4646",
"=  c #554E4E",
"-  c #56504F",
";  c #59514F",
":  c #554E51",
">  c #565152",
",  c #5B5455",
"<  c #5E5956",
"1  c #5D5658",
"2  c #5E5959",
"3  c #664343",
"4  c #60554B",
"5  c #615757",
"6  c #605857",
"7  c #635C5C",
"8  c #6F5958",
"9  c #795757",
"0  c #755A5A",
"q  c #775959",
"w  c #6D6257",
"e  c #66615E",
"r  c #69615F",
"t  c #645F60",
"y  c #666161",
"u  c #6A6463",
"i  c #6D6866",
"p  c #6C6768",
"a  c #6E6969",
"s  c #7B6766",
"d  c #716967",
"f  c #786C64",
"g  c #716B6B",
"h  c #706A69",
"j  c #726C6C",
"k  c #716C6C",
"l  c #746E6E",
"z  c #726C6B",
"x  c #77716F",
"c  c #777171",
"v  c #767071",
"b  c #787272",
"n  c #7B7575",
"m  c #7F7879",
"M  c #9A743B",
"N  c #C9433A",
"B  c #D0473F",
"V  c #965E5B",
"C  c #9B5D5A",
"Z  c #97615E",
"A  c #99615E",
"S  c #937D5D",
"D  c #A3615E",
"F  c #846767",
"G  c #876865",
"H  c #846C6B",
"J  c #906E6A",
"K  c #996662",
"L  c #817365",
"P  c #8C7D6E",
"I  c #817A7A",
"U  c #857D7D",
"Y  c #837D7D",
"T  c #8A7E73",
"R  c #937272",
"E  c #A46461",
"W  c #CA4F48",
"Q  c #D44C44",
"!  c #CC544D",
"~  c #D35347",
"^  c #D6544A",
"/  c #DC534B",
"(  c #D55A4B",
")  c #DA594F",
"_  c #CA5A53",
"`  c #D05952",
"'  c #DD5A51",
"]  c #E0574F",
"[  c #E35B54",
"{  c #E55F59",
"}  c #D5604E",
"|  c #D76252",
" . c #D66D57",
".. c #D96E59",
"X. c #D86257",
"o. c #D6755A",
"O. c #EA625A",
"+. c #EE685F",
"@. c #C76F6B",
"#. c #DB6662",
"$. c #DC6F6B",
"%. c #DB6A67",
"&. c #C0716C",
"*. c #D77B60",
"=. c #D87860",
"-. c #D9706B",
";. c #D87F7E",
":. c #E26F6B",
">. c #E56E65",
",. c #F36C64",
"<. c #E6706D",
"1. c #E8716E",
"2. c #EC7472",
"3. c #ED7875",
"4. c #B19162",
"5. c #B2997E",
"6. c #878081",
"7. c #888080",
"8. c #9C9080",
"9. c #9B958E",
"0. c #9C9694",
"q. c #AA8688",
"w. c #A78A8A",
"e. c #B29F82",
"r. c #BB9D9D",
"t. c #BBA683",
"y. c #B5A282",
"u. c #C7938D",
"i. c #CFB795",
"p. c #CFBA97",
"a. c #D3BE9B",
"s. c #C9AEAE",
"d. c #C8B9A6",
"f. c #DBC194",
"g. c #DCC49C",
"h. c #F3D39C",
"j. c #DEC8A5",
"k. c #DCC5A3",
"l. c #CDCABE",
"z. c #DBCBB3",
"x. c #E4CEA6",
"c. c #EFD4B7",
"v. c #EAD6B8",
"b. c #F3DCB5",
"n. c #F2DBBA",
"m. c #CECAC6",
"M. c #D4D0C9",
"N. c #DBD4C4",
"B. c #EBDEC7",
"V. c #E5DCCB",
"C. c #F4E3C4",
"Z. c #F9E6C4",
"A. c #F4E4C9",
"S. c #FAE6CA",
"D. c #FCEACC",
"F. c #E8E5DF",
"G. c #EDE5D2",
"H. c #F2E9D5",
"J. c #FCECD3",
"K. c #F3EBD9",
"L. c #FFF2DB",
"P. c #FEF5E2",
"I. c #FFF6E8",
"U. c #FFF9EE",
"Y. c #FFFBF2",
/* pixels */
"x i , y > 2 7 2 7 7 u i i u 7 7 u i u y 7 u 7 7 2 7 7 1 7 7 2 y i t 7 7 7 u u u 7 7 t t 7 1 2 7 y k ",
"Y h , = 1 2 , 7 > u u u 7 u 7 1 u u a a 7 u 7 7 7 u 7 7 7 u i u u u p a i u 7 7 y k 7 7 u y y y k k ",
"2 1 2 , 2 7 7 7 1 > > 1 , > = 1 2 1 7 7 7 7 7 7 2 1 > > , 1 , , 1 2 u u p v a k v h v l u k k h Y U ",
"2 , > > 1 7 7 7 7 > > = > 1 > 2 1 1 7 7 7 2 2 7 7 2 2 , > > > , 2 7 y 7 p i y u , u h i h l k l Y 7.",
"7 1 1 > 7 7 y y 7 1 , = > 7 > > > 1 1 7 y , 2 7 7 7 2 2 , , > , , 7 7 7 y u t 7 > y a h k l h b Y n ",
"2 1 y 1 e > y y u u 7 > > > > 7 1 7 1 7 7 1 > , 7 y y u 7 > , : , 7 , 2 , 2 7 2 , 2 7 p u h p a Y U ",
", 1 y 7 e 7 y 7 1 e 1 > , 1 > 1 1 1 7 7 2 = , > 1 1 1 7 7 , 1 > , , , 2 2 1 7 2 , 1 2 t p i u 7 b U ",
"7 1 7 7 e e u 7 7 i 7 1 1 7 , 7 7 7 y 7 1 , 1 7 4 w 6 , 2 7 , > , 2 1 2 t 7 1 7 7 t u u k h u y l Y ",
"1 7 e 7 e i 1 u e e 7 > 7 7 7 i u 7 y 7 > y N.x.@ S i.P > 1 1 > t p y u v l u 2 y a u u l h u y u n ",
"1 > 1 y 1 y y y e e e u u u 7 7 7 7 y 7 h F.P.g.O $ j.v.T , 7 7 2 u p b b v u u 1 , 2 u a k a 1 h Y ",
"7 7 7 r 6 y e 7 u e u 7 i 7 2 u u 7 7 7 0.Y.J.g.+ o k.S.z.7 y i i u a l h a u y y 2 1 7 a i u > 1 u ",
"y 7 ; , 6 y 7 u i y e r i u 7 u 7 u 2 7 m.U.D.g.@ . a.S.A.z i 7 u z b i v k a t t , , y k y 7 7 7 u ",
"7 7 , 7 6 r 7 e y 7 1 7 7 7 7 u u i 1 7 M.I.Z.f.@   p.D.B.d u 7 t a l a v i a y 2 2 , 2 a 2 7 > 1 i ",
"7 1 > 1 > 7 7 y y 7 7 7 7 7 y i u u 7 , 9.P.Z.f.# X f.D.d.u u y > 7 h a v y y u y 7 7 u v 2 , 2 7 i ",
"u > > 1 1 7 7 7 7 1 7 7 1 y 7 u y u y 7 a K.P.h.M 4.h.b.8.e u 7 7 7 u u i a h a 7 y u z z i 2 1 u u ",
"e 1 , 1 > 6 7 7 u 1 7 1 1 u e u 7 7 7 7 l.Y.P.b.& t.D.L.C.f 7 7 7 7 7 u 7 i u i y u p k a u y , u a ",
"7 > ; 5 > 7 1 6 7 > 1 7 7 7 u u u 7 u 7 N.Y.P.b.& t.D.L.C.f 7 7 7 7 u , y y 7 u k u u y k u 7 , 7 k ",
"7 , = , > 1 1 7 7 7 t 7 7 u 7 7 u a u u V.Y.P.b.& t.J.L.C.f 7 u t 7 7 1 p 7 7 u i l a a v u y 1 u a ",
"7 > > = > > = , 7 > 5 7 7 7 7 u y y u u G.Y.P.n.& y.J.L.S.L 1 1 , 1 1 , > 2 u 7 i i u a u a y 7 i k ",
"7 1 1 1 1 = = 7 7 , > 5 1 7 7 u u a a i H.Y.P.n.% e.J.L.S.L 2 , 1 7 7 , , > u u h k i a 7 k u u 7 v ",
"u > 1 1 , 1 1 7 u 7 1 1 7 u u u i a i i K.Y.P.n.% e.J.L.J.L , , 7 u u 1 u 7 a u a k i u a a a u u k ",
"7 > 7 1 7 1 , 6 7 6 7 7 7 7 i u u i y u H.U.L.c.& 5.S.J.J.L = > > 7 u e i y h y a l a a u h k a u u ",
"7 > > 6 1 1 , 1 7 1 7 1 7 7 7 u u z i a u.>.' Q N N Q ^ X.J , > 1 2 1 1 1 y i 7 7 u a i y 7 2 a 7 b ",
"i > > > > 7 1 1 7 1 7 5 7 y 2 a i i u i ;.,.{ / Q Q / [ { K 2 1 1 2 7 7 7 7 u 7 7 y k u y 7 7 i u Y ",
"u 7 1 1 5 1 7 1 1 1 7 1 7 7 7 7 y y u h 3.,.O./ Q / / [ { E , , > 7 7 > > 7 7 7 1 2 u a 7 7 u a a U ",
"i 1 5 u 7 1 2 , , , 1 , y 7 7 7 i a 7 h 3.,.O./ Q Q / [ { C 7 7 , 1 > 1 1 2 2 7 7 1 y u 7 t u a i m ",
"d 7 7 u 1 7 , 1 2 1 1 7 7 7 1 7 u h i i 2.,.{ / Q Q / [ { E 7 7 2 7 2 2 , 1 > 7 2 1 2 h u 7 u a u U ",
"i 7 i u 7 1 1 5 1 1 , , 1 u 7 7 y h a a 2.,.{ / Q Q / [ { D 7 7 2 7 u a 7 1 7 7 1 > 2 7 7 y y y a 6.",
"u 7 i u 7 7 7 7 7 1 1 > 1 7 7 1 7 i i i 2.,.{ / ..| / [ { D u u y i i h y y u 7 > , 7 2 7 t a u u Y ",
"r 7 u u u 7 7 u 7 7 2 2 7 1 7 5 1 7 y u 2.,.{ / o.| / [ { D y y h l k a 7 7 , > , , u y y y y y u 6.",
"i 7 u e 7 6 7 7 7 7 7 7 7 1 7 1 7 7 u u 1.,.{ / o.^ / [ { D u y a h h i 2 1 > > , , 7 7 y y y p a Y ",
"y 7 7 u e 7 7 7 7 7 7 7 7 1 7 7 7 7 7 7 <.+.[ / o.^ / [ { E u 7 a h i 7 2 > 2 1 > 1 , 7 , y u u 7 m ",
"y i u u r y e 7 r > 7 u 7 u 7 1 7 7 7 7 :.+.[ /  .( / ] { D 2 1 u h i 7 7 7 7 7 , , 7 7 , u 7 y 2 b ",
"y 7 7 d u i e r u 1 1 2 1 y 2 7 7 u 7 7 :.+.[ / o.( / / { C 2 7 7 7 i 1 2 > > : > 7 1 > , 2 7 2 t I ",
"u u r u r i y e y 2 7 7 y y 7 7 y y 7 y $.O.[ /  .~ / / { C > 7 7 y 7 7 7 y 1 = , , 7 1 > , , 2 1 b ",
"e 7 7 7 e i 7 7 u 7 7 7 7 y y 7 7 7 7 7 $.O.' / o.~ / / [ V > 2 7 2 7 7 7 7 7 > 2 > 7 , , > , 7 2 a ",
"1 1 6 e e 7 7 6 6 1 7 7 7 7 7 7 7 7 7 7 $.O.[ / o.( / / [ V 2 2 7 t u h 7 7 u y 7 2 1 1 , 1 , 2 2 p ",
"7 1 6 7 1 7 7 7 7 1 1 1 1 2 7 1 1 2 7 7 -.O.[ ) o.~ / ] [ V : > > 2 y u 7 1 , 7 , 7 1 , 1 , > 7 , a ",
"7 7 , , 1 1 7 7 7 , 1 7 7 1 7 2 7 1 2 7 $.{ / / Q Q / ] [ Z > : > , 7 7 > : : , : > , 1 , > > > 1 v ",
"u 1 7 7 6 1 > 1 6 , > > 1 7 u 1 7 7 7 y %.{ / / Q Q / / [ A : , , 1 7 u - 1 5 1 2 , 7 , 1 1 1 1 > u ",
"e 7 1 , ; 6 7 7 7 1 6 1 1 7 7 , 1 7 7 7 #.[ / Q Q Q / / [ C : = > > 7 > 7 , 2 7 , , 1 , 2 , 1 > > u ",
"u 7 2 , 1 1 7 1 1 1 1 1 1 1 e 1 7 6 2 7 #.[ / Q B Q / / [ C = = : > , = > 1 1 7 7 1 1 > 7 2 7 , u a ",
"u 7 7 6 7 1 1 7 6 7 7 2 7 7 7 6 7 u 7 7 @.! W ! ` ` ! _ &.G = > > > 1 > 1 7 7 7 7 > 2 1 , 2 1 t 7 k ",
"u 7 6 6 6 6 6 1 7 e 7 1 7 7 7 7 u u 7 7 q.q 3 R s.r.H H w.s = > > - 7 = 7 7 5 7 7 7 7 , 2 t u p u a ",
"u 7 6 7 7 , ; 7 7 7 6 7 7 7 u u u u 7 u s 8 9 9 G 0 q 0 F 5 > > > 7 7 > 7 7 7 u u , u 2 u t u u a a ",
"e 7 7 7 1 r 1 7 7 7 7 7 i 7 7 7 7 1 u u 7 , > > > , 1 > > = > = > 7 u > > 7 1 7 > 7 y 1 y 7 u y a a ",
"e u 7 7 r u 7 7 u u 7 u i u 7 u 7 u i a u 1 , 1 1 , > 1 > = > = > 7 , > > 7 7 1 1 y 7 7 7 2 p u h n ",
"u 7 7 7 7 1 r 7 u 7 7 u u u 7 7 u i u i 7 2 2 , 2 7 2 1 > 1 = = 1 7 7 1 1 = 1 = 7 = 1 1 7 t u y y a ",
"u 6 , u 7 1 u u 1 7 u u 7 7 7 7 7 7 u u 7 2 = , 7 , 1 1 > > = = , 7 > 1 , , 1 1 = > 7 > 7 y 7 2 7 b ",
"7 7 r r r 7 7 7 7 u r u 7 u 7 u i i y u y 2 > 2 1 7 1 > 1 > = = - > , * = = = > = = = = 1 2 , > , p "
};
