/* XPM */
static char *_29964426da94fd5c6e2ad71ffe80f97XZgHpYMbzrq7M4G8[] = {
/* columns rows colors chars-per-pixel */
"50 50 230 2 ",
"   c #2C3539",
".  c #353A3A",
"X  c #403F39",
"o  c #2E4D37",
"O  c #2D3E45",
"+  c #373D41",
"@  c #2E4249",
"#  c #38494A",
"$  c #3B564B",
"%  c #384A52",
"&  c #38535B",
"*  c #385964",
"=  c #4B4C49",
"-  c #445B49",
";  c #5D554C",
":  c #5F584E",
">  c #465856",
",  c #5C5A55",
"<  c #63584C",
"1  c #645C55",
"2  c #436452",
"3  c #4A6355",
"4  c #5B6250",
"5  c #63675A",
"6  c #75685B",
"7  c #4B5F64",
"8  c #595F62",
"9  c #486765",
"0  c #586668",
"q  c #5C6A6C",
"w  c #597569",
"e  c #496A74",
"r  c #556A74",
"t  c #5D6D71",
"y  c #5F7275",
"u  c #5A7678",
"i  c #6B6A66",
"p  c #636C6D",
"a  c #746B61",
"s  c #7A6F67",
"d  c #6D7863",
"f  c #6B736B",
"g  c #747564",
"h  c #7C7266",
"j  c #77756C",
"k  c #7D746A",
"l  c #626D71",
"z  c #686E74",
"x  c #637275",
"c  c #6A7372",
"v  c #687A76",
"b  c #64757A",
"n  c #667A7D",
"m  c #6B7B7D",
"M  c #797C76",
"N  c #847765",
"B  c #81766B",
"V  c #847A6C",
"C  c #8D7D6E",
"Z  c #857C73",
"A  c #8B7E71",
"S  c #817F7B",
"D  c #907F71",
"F  c #598479",
"G  c #6C827E",
"H  c #7A867B",
"J  c #84826C",
"K  c #858173",
"L  c #8C8274",
"P  c #868B77",
"I  c #84837C",
"U  c #8C857B",
"Y  c #8D8A7D",
"T  c #928374",
"R  c #938679",
"E  c #968878",
"W  c #948A7C",
"Q  c #9B8C7D",
"!  c #95917C",
"~  c #9C937E",
"^  c #9C987F",
"/  c #A08F7E",
"(  c #A2927E",
")  c #647B82",
"_  c #6B7C83",
"`  c #6E7F8A",
"'  c #7A7F83",
"]  c #5D848D",
"[  c #6E8283",
"{  c #6C858B",
"}  c #718683",
"|  c #798B85",
" . c #73848B",
".. c #748A8B",
"X. c #7A9286",
"o. c #7C938C",
"O. c #698897",
"+. c #738690",
"@. c #788791",
"#. c #748A94",
"$. c #7A8C95",
"%. c #7C8E99",
"&. c #62909A",
"*. c #7B9595",
"=. c #7E919C",
"-. c #6C94A2",
";. c #7898A5",
":. c #7EA1AC",
">. c #858584",
",. c #898683",
"<. c #8C8A84",
"1. c #84878C",
"2. c #84898C",
"3. c #8C8C89",
"4. c #938D83",
"5. c #9B8E81",
"6. c #928E8B",
"7. c #8C938B",
"8. c #959284",
"9. c #9D9283",
"0. c #9D9984",
"q. c #95928B",
"w. c #9D968B",
"e. c #939A8A",
"r. c #9E998D",
"t. c #828E95",
"y. c #818F99",
"u. c #879896",
"i. c #81939E",
"p. c #8A9C9C",
"a. c #959592",
"s. c #989695",
"d. c #959B95",
"f. c #9C9C93",
"g. c #959A9C",
"h. c #9A9D9C",
"j. c #A08F80",
"k. c #A29584",
"l. c #A49A86",
"z. c #A29689",
"x. c #A59A8B",
"c. c #AA9D8D",
"v. c #A39C92",
"b. c #AA9F91",
"n. c #98A199",
"m. c #9AA19E",
"M. c #A4A087",
"N. c #A6A28B",
"B. c #ABA28E",
"V. c #A5A294",
"C. c #ACA394",
"Z. c #AFA995",
"A. c #A4A39C",
"S. c #ABA59A",
"D. c #A4A89B",
"F. c #ADAA9C",
"G. c #B1A494",
"H. c #B2AA97",
"J. c #B3AB9B",
"K. c #B4B09D",
"L. c #B9B29E",
"P. c #8495A2",
"I. c #8799A6",
"U. c #8C9AA3",
"Y. c #8799A8",
"T. c #8B9DAB",
"R. c #929DA3",
"E. c #979FAA",
"W. c #8CA3A6",
"Q. c #8EA1AF",
"!. c #95A4A4",
"~. c #9CA4A3",
"^. c #99A7A7",
"/. c #9BA3AC",
"(. c #9DABAB",
"). c #9EB1AD",
"_. c #8EA3B3",
"`. c #86A9B4",
"'. c #92A4B3",
"]. c #9DA6B0",
"[. c #95AAB4",
"{. c #9CABB4",
"}. c #90A7B8",
"|. c #95AABA",
" X c #9CACBB",
".X c #9DB1B5",
"XX c #9EB2BD",
"oX c #A5AAA3",
"OX c #A5AAA7",
"+X c #ABADA3",
"@X c #A3ACAC",
"#X c #B2AFA3",
"$X c #A7B1AE",
"%X c #ACB2AC",
"&X c #B5B2A4",
"*X c #BBB3A2",
"=X c #B9B7AC",
"-X c #B5B9AC",
";X c #A4ACB4",
":X c #A3AEBA",
">X c #A3B5B5",
",X c #AAB5B1",
"<X c #AEB9B5",
"1X c #A5B2BD",
"2X c #A6B9BA",
"3X c #ABBCBC",
"4X c #B5B9B1",
"5X c #B3BCB4",
"6X c #B3BEBB",
"7X c #C1B9AC",
"8X c #ADC1BE",
"9X c #B8C2BC",
"0X c #9DAFC0",
"qX c #9AB8C3",
"wX c #A2AFC1",
"eX c #A5B3C1",
"rX c #A9B6C3",
"tX c #AAB9C4",
"yX c #A8BDC7",
"uX c #B1BFC2",
"iX c #9EC3D0",
"pX c #ACC2C7",
"aX c #B2C2C3",
"sX c #B9C8C6",
"dX c #B2C5C9",
"fX c #ABCBD8",
"gX c #B2CCD4",
"hX c #B6CED6",
"jX c #B1D1DD",
"kX c #B7D6E1",
/* pixels */
"q t t t t t t t q t q q q q q q 0 0 0 0 q q q q q q q 0 0 0 0 0 0 0 0 q q q q t t t t t t l x x x x ",
"b b b b b b x x x x l l l l l q q q q q q 0 q q q q q q q 0 0 0 0 q q q q q q q t t t t y x x x x x ",
"n _ m b b x x x x l l p l x l l l p q q t q q q q q q q q 0 0 q q p q q q q q p p p q q q p p b n y ",
"b _ l , 8 j Q Q 5.5.5.Q 9.=XC.5.Q Q E T p q q q : < ; V L L T T 5.=X9.E Q Q Q Q Q Q Q Q Q ~ L b n t ",
"t m l 7 t M k.k.k.k.k.k.k.c.J.k.( ( ( Q c l t l B N < ( ( ( ( c.7Xc.( ( ( ( ( ( k.k.k.z.c.C.W m b t ",
"b _ x > 0 M 9.~ ~ ( ( / Q Q Q Q Q Q Q Q c x x x T C < Q Q Q k.*Xl.Q Q Q Q Q Q Q Q Q Q ( z.J.w.m _ x ",
"x  .m Z W 5.9.Q E E E R T T R b.c.T T L c x b b Z N < T T T J.z.T T T T T T T E 9.l.z.x.V.C.Y _  .x ",
"_ @. .~.%XD.V.f.q.4.L q.f.s.a.3.<.<.q.q.m n n n a.a.M q.U ,.>.,.4.4.q.a.I m.2X3XaXaXuXaXaXaX!.`  ._ ",
"_ @. .yXkX3X@X(.(.!.<.1XjXjXjXhXpXhXgXfX.._ ) [ yXpXW.(.@X>X>X@X~.~.(.(.I m.tXpXdXdXaXaXdXdX*. . .x ",
"_  . .2XhXaX,X$X~.!.<.XXjXjXgXdXpXhXdX2X+.[ _ [ XX.Xp.@X3X>X{.;X~.~.(.^.I d.@X@X@X,X,X$X%X%Xt. . .n ",
"_ @.@.;XsXsX3X6X<X,X<.>XfXfXdXaX8X3X<X,X . .[  .!.m.$.~.@X~.!.~.R.U.!.m.I d.~.~.p.$X$XoXoXOXt. .@.x ",
" .%.%.h.,X5X$X5X<X<Xq.,X>X[.[.W.p.o.X.} _  . . .~.<X).>X>X2X2X2X2X2X<X5X4.oX6X9X6X4XF.V.&X9X~. .%.` ",
"i.P.%.3.V.F.8.v.f.n.<.$X>X{..Xp.v 3 - - x +.+.+.m.+Xu.(.m.).p.>X!.(.A.%XK f.-X-XD.Z.N.0.K.#X~.@.%.$.",
"P.P.i.q.#X&XN.C.V.V.Y oX8XgXjX*.w w w F n #.#.+.^.5X$X8X2X3X>X>X).@X%X-X4.oX9XsX-XJ.M.N.-X5Xn.@.=.%.",
"P.P.P.8.Z.J.B.N.l.0.P ~ e.u...3 2 > $ 2 y #.#.#.m.F.d.).!.^.u.u.7.P r.r.J n.+X=X*XK.l.0.N.Z.8.@.=.%.",
"I.I.P.Y B.Z.N.M.^ ^ L ! J 5 3 - 3 $ o o x #.$.$.d.-X^.3X>Xp.o.o.X.H 8.w.8.V.F.=XL.L.l.^ N.Z.W $.P.=.",
"Y.I.I.<.C.Z.N.N.~ ! L ! H 4 - - d g - o t %.%.$.<.+Xm.>X^.n.P H | H ! ~ W 0.N.=X*XL.l.~ x.Z.5.$.P.%.",
"Y.Y.I.<.Z.Z.N.x.! ! L ! P v e 3 P Y w % y %.%.$.I +Xg.(.!.e.P H H M Y ! J ~ l.*XL.L.k.9.c.C.Q $.P.=.",
"T.T.T.<.C.Z.N.x.0.0.Y W K 0 9 9 F 9 $ 9 n =.=.%.I 9.| u.} X.} G v f J V B Q l.K.J.J.l.k.x.C.8.%.I.I.",
"T.T.T.<.C.Z.0.P 0.0.k K Y [ ;.{ qX`.9 :.;.i.=.=.<.W f } G } G G G f V k h Q l.Q g Z.z.k.c.C.! %.I.I.",
"T.T.T.<.C.Z.! 5 0.W g K j m `.#.iXiXr u +.P.P.i.6.9.f } }  .[ G G v K g a 9.C.Y j J.C.c.C.F.8.y.Y.I.",
"T.T.T.3.C.C.W X 5.L 4 M j > e * ] ] & @ x U.U.U.f.C.| p.W.*.o. .[ c P d g x.&Xq.7.=X&X&X&X&Xf.%.T.I.",
"_.Q.Q.6.J.S.9.= L U K U s = u r &.-.u # q R.R.R.f.C.2.*.*.$.....} H w.x.W 0.J.8.w.*XJ.J.J.J.v.y.T.P.",
"_._._.<.H.H.V.A.h.q.q.8.S  .;.;.;.-.O.e b /././.h.A...#.#.) ) ) b c q.x.W 9.C.C.C.J.C.C.S.F.q.y.T.Y.",
"'.'._.<.G.G.V.w.4.U U W M x #.:.`.O.r 7 c /./.].a.W 0 b u u b u t p q.x.W 9.C.V.C.J.C.C.S.F.r.y.T.T.",
"'.'._.3.G.G.v.r.R Z L Y j . # % % * @   x ;X@X@Xa.W 0 y y t t t q p 4.r.W Q b.C.S.C.V.V.C.S.w.y.Q.T.",
"'.'._.3.G.C.C.A.Y Z K <.j .   + O & O   z ;X@X/.m.W q b m x x b x p <.r.W Q x.c.C.V.x.c.C.C.w.y.Q.T.",
"|.'.}.3.C.C.C.A.q.Z Z K S c ' I S 2.I >.3.:X;XR.g.4.x 7.s.a.a.q.4.S Y 8.U W w.c.V.C.c.b.C.F.x.%.Q.T.",
"|.|.}.3.C.C.V.v.<.B 6 a 6 i a a k k k k ,.:X;Xy.>.V p S K K K Z k s k B h L z.9.l.l.k.k.c.C.x.y.'.T.",
"|.|.|.3.F.F.D.v.U 6 6 6 h k h k h V h k ,.:X:X].6.L f 6.q.q.q.q.q.q.4.4.U 5.9.x.x.C.c.x.x.C.k.y.'._.",
"|.|.|.3.+XF.V.q.Z 6 N B A Y U U U U U L ,.:X;X:Xa.L f q.v.v.r.w.r.v.v.x.v.v.v.v.V.C.b.x.l.C.k.y.'.'.",
" X X X3.S.S.r.4.U T E Q Q 9.9.w.w.9.x.w.6.1X;X:Xs.Q f r.V.V.V.v.w.r.x.w.w.x.V.C.C.C.b.l.k.x.9.y.'.'.",
"0X XXX>.v.v.5.5.9.Q 9.9.9.w.w.x.z.z.x.w.6.1X:X1Xa.k.f r.S.V.V.v.v.w.x.x.l.l.c.b.C.C.l.k.k.c.9.y.|.'.",
"0XeXXX>.z.z.9.w.z.9.k.Q 9.9.9.z.9.k.9.9.6.1X1X1Xa.z.i w.b.v.x.c.v.c.x.c.c.c.b.C.b.c.l.k.k.l.k.y.|.'.",
"0XeX1X3.c.x.z.z.z.9.9.9.9.Q Q 9.9.Q 5.9.<.1X1X1Xa.k.5 w.c.9.9.k.z.l.c.c.c.c.c.c.b.c.c.c.z.l.k.y.{.|.",
"eXeX1X3.C.b.C.c.c.k.l.z.k.Q 9.9.9.9.5.9.3.1X1X1Xa.l., w.b.c.9.k.z.c.c.l.l.c.c.c.c.c.c.c.k.k.9.t. X|.",
"eXeXeX3.B.G.G.C.C.l.c.l.9.9.9.9.9.k.l.c.6.1X1X1Xs.l.1 4.x.z.9.9.z.z.l.l.c.C.b.l.z.l.l.l.Q T E t. X X",
"eXeXeX3.C.C.G.B.c.c.z.k.k.k.l.l.z.l.c.b.6.:XeX1Xs.l., W z.z.z.c.c.l.z.k.k.c.b.c.l.k.k.z.z.Q T t.1X X",
"eXeXeX3.B.c.c.l.l.l.l.l.l.c.c.l.k.k.l.c.6.1X1X1Xg.k.< L z.z.9.9.9.9.9.9.z.c.c.c.z.Q W Q ( / E 2.1X X",
"eXeXrX3.c.c.c.c.c.c.l.k.k.k.l.l.k.k.l.l.q.1X1X1Xg.5.; V Q W R E 9.k.z.z.k.5.k.z.z.9.Q Q Q / Q 2.eX1X",
"eXeXtX3.c.l.k.l.k.9.9.k.k.k.k.Q Q k.k.z.q.1XeX1Xh.5.; A 9.9.Q W Q 5.9.9.9.5.Q 5.k.j.Q T T R E 1.eX1X",
"eXeXtX3.c.l.k.k.9.k.k.9.9.9.Q Q Q 9.9.9.6.1X1X1Xh.W 1 V Q R E E E R Q 9.9.9.E T Q Q Q E D D T 2.eX1X",
"eXrXtX,.k.z.z.k.9.9.Q 9.9.Q Q E Q 9.9.9.6.1X1X1Xg.T < k R R R E W R R Q 5.Q W T Q Q Q Q Q T R 1.tXrX",
"1XrXtXS Q 5.W E E Q Q Q Q W E T A L T T <.1X1X1Xg.A ; B W 5.5.5.Q T A R W Q Q R T T T C C C R 1.rXrX",
"1XeXtXM A A T E 5.R L L L L A C A T R R <.1X1X1Xg.A < B E W R T T L V A E Q 5.Q R T T T T D C >.tX X",
"|.1XtXI Q Q 5.k.9.R E W Q Q Q T L T R E 4.1X1XeXR.C < V R E T L A V V T W Q 5.5.Q T T T T T C ' tX:X",
"|. XeX>.Q 5.5.5.T T T T T R U Z Z Z B V I :X1X1XR.V 1 h A A A V V B k V Z Z Z Z B k B k s s s ' eX X",
"'.|.eX]./././././././././././././.]./.].{.:X:XeX:XE.E./././.].{.{.;X:X:X:X:X:X:X1X1X1XeXeXeX1XrXrX X",
" X1XrXtXtXtXrXrXrXtXrXrXrXrXrXeXeXeXeXeXeX1X:X:XeXeXeXeXeXeXeXeXeXeXeXeXeXrXrXtXtXrXrXrXrXtXtXrXtXeX",
"wXeXeXtXrXrXeXeXtXtXtXeXeXeXeXeXeXeXeXeXeXeX'.:XeXeXeXeXeXeXeXeXeXeXeXeXeXeXrXrXrXrXrXtXrXtXrXrXrXwX"
};
