/* XPM */
static char *b8362052a29b4ffcedd6c6aa9dc4d072OnNect7V2dbfiSni[] = {
/* columns rows colors chars-per-pixel */
"50 50 158 2 ",
"   c #4F4949",
".  c #554D4E",
"X  c #59514F",
"o  c #554F51",
"O  c #575152",
"+  c #5B5454",
"@  c #5E5957",
"#  c #5C5758",
"$  c #5E5959",
"%  c #605857",
"&  c #645F5C",
"*  c #665E5C",
"=  c #665F5D",
"-  c #645E5E",
";  c #655E5E",
":  c #655F5E",
">  c #645E5F",
",  c #655E5F",
"<  c #655F5F",
"1  c #665E5E",
"2  c #665F5F",
"3  c #675F5F",
"4  c #645C5C",
"5  c #635C5C",
"6  c #65605D",
"7  c #65605E",
"8  c #64605F",
"9  c #66615E",
"0  c #66605F",
"q  c #66615F",
"w  c #67615F",
"e  c #67625F",
"r  c #66605E",
"t  c #68605E",
"y  c #68605F",
"u  c #68615F",
"i  c #635F60",
"p  c #645E60",
"a  c #655E60",
"s  c #655F60",
"d  c #645E60",
"f  c #685F62",
"g  c #656161",
"h  c #666060",
"j  c #676060",
"k  c #676160",
"l  c #666161",
"z  c #676161",
"x  c #676260",
"c  c #666261",
"v  c #656162",
"b  c #666162",
"n  c #676162",
"m  c #676163",
"M  c #676362",
"N  c #666263",
"B  c #676363",
"V  c #676264",
"C  c #676364",
"Z  c #666161",
"A  c #686060",
"S  c #686161",
"D  c #696161",
"F  c #686260",
"G  c #686360",
"H  c #696360",
"J  c #686261",
"K  c #696361",
"L  c #686262",
"P  c #696262",
"I  c #696362",
"U  c #686263",
"Y  c #696263",
"T  c #696363",
"R  c #6A6262",
"E  c #6B6363",
"W  c #696461",
"Q  c #686463",
"!  c #696463",
"~  c #6A6562",
"^  c #6A6463",
"/  c #6B6463",
"(  c #686264",
")  c #686364",
"_  c #696364",
"`  c #686464",
"'  c #696564",
"]  c #696565",
"[  c #6A6464",
"{  c #6B6464",
"}  c #6A6564",
"|  c #6B6564",
" . c #6A6465",
".. c #6B6565",
"X. c #6B6666",
"o. c #6C6464",
"O. c #6C6565",
"+. c #6C6764",
"@. c #6C6666",
"#. c #6C6766",
"$. c #6C6667",
"%. c #6D6767",
"&. c #6E6666",
"*. c #6E6767",
"=. c #6F6767",
"-. c #6A6464",
";. c #6D6867",
":. c #6C6668",
">. c #6D6768",
",. c #6B6768",
"<. c #6C6869",
"1. c #6E6868",
"2. c #6F6969",
"3. c #6E6A69",
"4. c #6D696A",
"5. c #6E6A6A",
"6. c #6F6A6A",
"7. c #6F6B6A",
"8. c #6E6969",
"9. c #716966",
"0. c #706A6A",
"q. c #716A6A",
"w. c #716B6B",
"e. c #726A6A",
"r. c #706C6B",
"t. c #706A6C",
"y. c #726C6C",
"u. c #736D6D",
"i. c #746E6E",
"p. c #756E6E",
"a. c #746F6F",
"s. c #756F6F",
"d. c #726C6C",
"f. c #75706D",
"g. c #76706F",
"h. c #746E70",
"j. c #767070",
"k. c #777070",
"l. c #777171",
"z. c #777271",
"x. c #787272",
"c. c #797272",
"v. c #797373",
"b. c #7A7272",
"n. c #7A7474",
"m. c #7C7774",
"M. c #7D7676",
"N. c #7E7676",
"B. c #7F7777",
"V. c #7B7575",
"C. c #7E7878",
"Z. c #807878",
"A. c #817979",
"S. c #827A7A",
"D. c #857F7E",
"F. c #847E80",
"G. c #868082",
"H. c #8D8585",
/* pixels */
"f.#.5 8 . 5 5 5 } J - #.#.J 4 4 - w.#.- x J 5 - # - 5 + 5 5 $ 5 2.J - - x J #.J J 5 } 5 J + 5 $ 5 y.",
"m.} + O # 5 # - . - - - - - 5 + J J #.} 5 J - 5 $ - 5 5 5 - J J J :.#.#.#.2.- - } 2.p ) ) J - - 2.i.",
"$ $ $ + + $ $ 5 + # O # O # O $ $ O 5 - 5 5 5 5 $ 5 O O # O # + $ - x } 2.y.#.w.w.y.y.i.w.w.2.2.i.S.",
"5 + O O + 5 - 5 5 O O . O # O # 5 # # x 5 $ 5 5 - + # O O + O + 5 5 - x J 2.x } + } } w.2.w.y.j.m.H.",
"5 # # + 5 8 W 8 8 $ # . O 5 # O O O # 5 - 5 $ # 5 5 $ 5 O + O o # $ $ 5 ) x ) $ + p 5 i.y.y.i.y.x.m.",
"# 5 J 5 5 # 8 8 W x 5 O # O O 5 5 - 5 5 - # + O x J x J - + + o O $ o $ # 5 p 5 # $ $ w.#.w.#.#.m.S.",
"+ # W 5 W 5 J - # 8 5 + + # # O 5 + 5 - $ O + + # # $ x 5 $ # + O # + # $ # p 5 # $ $ x } w.#.- j.m.",
"5 5 # 5 - 8 W 5 5 t $ + # - # 5 x 5 - x O O # O O . + + 5 5 + o O 5 + $ 5 5 $ 5 p 5 x 2.} w.} J J S.",
"# 5 & # 5 #.5 8 8 x - + - - 5 } #.5 - 5 O + O + . O . O O # # O 5 t.) J i.w.2.# 5 W x 2.i.y.} x W w.",
"+ % # e + 8 W J 8 x 8 J J J x x 5 x x J # + + O O O O + + + x $ $ ) #.y.n.x.#.p # 5 $ x } w.#.5 J x.",
"- 5 % t % W t 8 } 8 J J J #.5 5 } 5 5 5 $ O # O # O O + $ # 5 } #.} y.2.y.j.2.:.5 $ $ 5 ) w.J # . J ",
"J 5 O # % J 5 J 2.x x t W #.J J - J 5 - - $ # # # # + + $ x } - x :.x.y.2.j.2.5 C $ O 5 2.2.5 - 5 J ",
"- 5 O % # 8 8 5 J 5 5 & 5 - J J J #.# 5 - - 5 5 O x - - x J J 5 x } w.y.w.w.2.x C $ # $ } 8 $ $ . #.",
"J # . # + - - J - - 5 5 x - x - #.x - # 5 5 5 - 5 J J #.J #.J x # 5 w.y.w.} J #.p 5 $ x 2.x $ $ # J ",
"J O . + + & - 5 - # 5 5 # 5 5 - - J J - # 5 $ 5 x - J } J x J - # - - #.} 2.w.2.- C ) y.2.2.5 $ x #.",
"W # + O O # - t o.# 5 # 5 #.#.J x x x 5 5 $ # 5 x J x x J J 5 5 - - 5 x ) #.} #.- :.} } y.,.5 $ # y.",
"- X + % O 4 # % - O # # 5 3 - J - - J 5 x # 5 5 x 5 5 5 - 5 5 - % 5 J $ 5 2.5 J y.} 8 } y.,.5 + + y.",
"5 O . O O % 5 5 - 5 - - 5 J - - J 2.J } 5 x 5 5 O . $ - - $ 5 J f J 5 5 p J - } #.2.y.2.j.#.x # 5 y.",
"x O O O O O O + J # % 5 # f - J J x #.} - 5 5 5 . O # $ 5 $ O # # % O 5 + # - 5 #.w.J 1.2.} #.5 5 y.",
"#.# O # # O X 5 - O O # # - J - #.} 2.#.} 5 5 # # O O # # 5 5 # # 5 5 5 + O - } #.y.2.2.} w.} } 5 j.",
"#.O O + O # + 5 #.5 # # - - J - 2.1.} } J x 5 $ # 5 O O . O # O 5 J #.5 x - } #.w.y.w.} i.#.2.} 5 j.",
"J + + # 5 % # # - 5 - 5 - - #.J W W #.} } #.#.J - # + X # # O O # 5 J - #.- 2.J } y.w.} #.w.2.2.} } ",
"- X X % # + O + 4 # % # J - J J x w.} #.2.#.} } - 5 # % 5 % + O 5 # 5 # $ J } 5 - x w.} } 5 5 } ) j.",
"o.O O O O % # O 5 # 5 # J J - w.w.J #.2.w.w.#.#.J 5 - 5 - # # O # 5 $ # $ 5 J - - - #.#.J 5 5 J x m.",
"w.# + # % % $ # # + - 5 # J 5 x x - #.#.2.#.w.2.2.2.#.- - 8 $ # + 5 5 5 + $ 5 - $ $ J 2.:.$ } #.2.C.",
"w.+ # - 5 # # + $ + 5 + - - 5 - #.#.- #.- 2.2.2.J - } w.J 5 5 5 # 5 # # # $ - 5 J 5 5 #.} 5 :.2.:.x.",
"w.- 4 - # # # # 5 # + 5 $ 5 # J 8 #.#.J J #.J } #.5 x J x - $ 5 5 $ $ # # $ O 5 # + 5 } ) + x 2.x n.",
"#.4 #.J % # + # # # # # + J 5 $ #.9.2.#.J } J x J - J J #.J 5 5 5 - } } 5 $ # 5 5 # $ 5 J 5 W W } D.",
"#.- #.J J % 5 5 - # $ + # - 5 5 # #.2.2.#.#.2.#.} #.#.J #.} - x - } } #.J J x - # O 5 5 x $ } } 5 m.",
"5 - #.#.J - t 5 - 5 5 $ $ $ 5 5 # 5 5 - w.#.- x #.} 2.#.} } J J #.n.y.y.J # $ # + + :.- } + x x x G.",
"#.- J J 5 % % - J 5 5 5 # % 5 # 5 # J x J J 2.} } #.J } } - J - 2.i.2.2.x $ O O # . - - - 5 C } C F.",
"W 5 5 W 5 5 % - 5 5 5 5 # % 5 # 5 5 J $ - x J J J #.J #.5 J #.- J i.#.x $ O # + O # + 5 # p } p x y.",
"W J - o.o.W J 5 - # 5 x 5 J 5 $ 5 # 5 - - #.J - J } x x - - 5 $ J w.y.5 5 5 5 p O O $ + + x x 5 $ 2.",
"W t & 9.o.W J J #.# 5 - # x 5 5 5 J - 5 J #.} 2.2.#.#.5 J $ $ x $ } 2.5 $ . O . + + 5 O + $ # $ $ y.",
"J t t o.W t W 5 W + $ - 5 x - 5 5 5 - 5 - J } } w.- x J x O O $ 5 2.} p p 5 $ O + O $ - # $ $ # O h.",
"5 - 5 8 5 W & & W - x 5 $ x - $ x - 5 - J - J J x 5 5 $ $ O O + 5 # $ 5 $ 5 5 O $ O - + O O O 5 $ 2.",
"# 5 5 5 8 & 5 % % 5 # % 5 5 5 5 # # 5 $ - x 5 5 5 # $ + # + $ $ 5 5 x J - 5 - - 5 # $ $ $ + O # 5 x ",
"5 5 # - # 8 5 % t $ # # $ $ - 5 # 5 5 $ - $ # 5 $ $ # + O . o + O # 5 J 5 # + - $ x + O + # + p # 2.",
"- % + # # 5 8 & - # # 5 $ # 5 $ 5 # $ $ + + $ $ # 5 5 + + + + o + O 5 - $ o + + O O + $ $ + O + + } ",
"5 % % % % # # % 5 # + # $ - - # J $ 5 5 5 5 # # O # # O + O O o + + 5 - # . # + + . $ # $ # # # + C ",
"5 - + # X % # t # # + # # 5 5 + # # 5 $ 5 O $ 5 # # O . o . . . O . # + # 5 5 - - + + # # $ + + O x ",
"W # # # % % 5 + 5 5 5 % # 5 - # 5 5 # $ O # $ $ # # O   . + . . O . 5 . O $ o 5 5 # O O 5 + # + # ,.",
"- 8 5 % t # + 8 # % # 5 5 - - 5 % o.5 - $ - 5 $ 5 + $ $ O # . + O O O O O J 5 - - . 5 5 + $ $ + p y.",
"W 5 5 # % # % # 5 8 5 # 5 - 5 % - J - 5 $ 5 J $ + + $ $ O O O O 5 . - O O 4 5 5 - 5 - 5 5 $ x ,.C } ",
"2.5 % % 5 5 + 5 5 - % - 5 - J 5 J - x - 5 # 5 O # + $ # + O O O + + 5 O O 5 # J - # J 5 5 p x } ,.7.",
"8 - 5 # # & 5 - % # - $ J 5 - - - # J } - + + O O # 5 O X . . . O 5 #.# . 5 O & # O J + p 5 ) x 2.w.",
"8 8 - & t 8 - % #.J - } J J - J - - } 2.x + + + # + + # O . # . O #.O # O 5 - 5 # J J # 5 5 :.2.2.m.",
"8 J 5 5 & 5 - 5 #.- - J x - - - - #.#.#.x + $ + + 5 $ + # O O O + 5 5 O O O O . # # # # - p ) C } y.",
"#.- % - & % #.- - & t } J - - - - J #.} x # O O # $ # O O . O . . - # O + X O # + X % # # x 5 $ x y.",
"# 5 - - t & # 3 % 3 - J 4 3 - x J x J #.5 # O $ + 5 5 O 5 . O . O 5 . O . # . . # X + X # x $ O + ,."
};
