/* XPM */
static char *ced2a41515334e238db472cc0bc55f6fHZdJLlK9Cs0U5uD0[] = {
/* columns rows colors chars-per-pixel */
"50 50 244 2 ",
"   c #0D0908",
".  c #150D0B",
"X  c #1A0C0A",
"o  c #1C1311",
"O  c #1B1514",
"+  c #251A16",
"@  c #341E16",
"#  c #37251C",
"$  c #2F241D",
"%  c #2B1F20",
"&  c #3C2B23",
"*  c #362925",
"=  c #3C322A",
"-  c #3B3537",
";  c #452B1E",
":  c #4B2D1D",
">  c #44221A",
",  c #532B1C",
"<  c #4D311E",
"1  c #55311E",
"2  c #442D23",
"3  c #512A22",
"4  c #4B3529",
"5  c #543423",
"6  c #593523",
"7  c #5A3926",
"8  c #533A2C",
"9  c #593A29",
"0  c #4E3C33",
"q  c #483B38",
"w  c #533E33",
"e  c #643927",
"r  c #6A362B",
"t  c #5C412F",
"y  c #554233",
"u  c #5B4435",
"i  c #5B463B",
"p  c #5C4A3B",
"a  c #56473B",
"s  c #4B4236",
"d  c #64432D",
"f  c #69442D",
"g  c #78472B",
"h  c #644433",
"j  c #6A4B35",
"k  c #634D3D",
"l  c #6B4C3A",
"z  c #674836",
"x  c #754D37",
"c  c #6E533B",
"v  c #73543C",
"b  c #7A553D",
"n  c #7B593E",
"m  c #765338",
"M  c #423F40",
"N  c #564D4D",
"B  c #5B4A42",
"V  c #575152",
"C  c #5B5454",
"Z  c #5D5758",
"A  c #5E595A",
"S  c #5F5957",
"D  c #52504C",
"F  c #645343",
"G  c #6D5542",
"H  c #685749",
"J  c #765B41",
"K  c #7C5C43",
"L  c #775745",
"P  c #615956",
"I  c #635C5C",
"U  c #675A57",
"Y  c #745E53",
"T  c #644F44",
"R  c #7D6146",
"E  c #7C614B",
"W  c #66605E",
"Q  c #69615E",
"!  c #796555",
"~  c #645E60",
"^  c #666162",
"/  c #6A6464",
"(  c #6B6668",
")  c #6E696A",
"_  c #726C6D",
"`  c #776A64",
"'  c #767375",
"]  c #8C3836",
"[  c #845C3C",
"{  c #875537",
"}  c #925F38",
"|  c #B75C35",
" . c #C36032",
".. c #8B5D43",
"X. c #835C45",
"o. c #905D4F",
"O. c #B55250",
"+. c #846245",
"@. c #8B6445",
"#. c #84654C",
"$. c #8B654C",
"%. c #8B6A4E",
"&. c #8B6849",
"*. c #946C4C",
"=. c #956547",
"-. c #866953",
";. c #8C6D53",
":. c #866856",
">. c #926B54",
",. c #9A6D54",
"<. c #946D59",
"1. c #926753",
"2. c #8E7055",
"3. c #8C735C",
"4. c #927157",
"5. c #93745B",
"6. c #9B745C",
"7. c #97785F",
"8. c #9B795E",
"9. c #9A7255",
"0. c #9B714F",
"q. c #A27A5E",
"w. c #A27558",
"e. c #B06B45",
"r. c #A55F61",
"t. c #887566",
"y. c #977961",
"u. c #9C7C62",
"i. c #997965",
"p. c #897C75",
"a. c #967C71",
"s. c #A36567",
"d. c #A27B63",
"f. c #AA7D64",
"g. c #A47C68",
"h. c #B37866",
"j. c #DC7B41",
"k. c #C77169",
"l. c #9D8067",
"z. c #9D8776",
"x. c #8B817D",
"c. c #A28266",
"v. c #A4846A",
"b. c #AA866D",
"n. c #AA896E",
"m. c #AB8067",
"M. c #B4866B",
"N. c #B7896B",
"B. c #AD8B73",
"V. c #A98976",
"C. c #B28D73",
"Z. c #BB8E73",
"A. c #B58C76",
"S. c #AC917A",
"D. c #B39176",
"F. c #BC9275",
"G. c #B3937A",
"H. c #BA957B",
"J. c #BC997E",
"K. c #C39A7D",
"L. c #C39679",
"P. c #D08C76",
"I. c #C7A07F",
"U. c #E1946A",
"Y. c #847E80",
"T. c #908F8C",
"R. c #A69386",
"E. c #BC9B84",
"W. c #B39C85",
"Q. c #A88985",
"!. c #BBA38A",
"~. c #BBA695",
"^. c #AEA39C",
"/. c #A0A7A7",
"(. c #C29D83",
"). c #C79D85",
"_. c #D1998E",
"`. c #C3A186",
"'. c #CBA484",
"]. c #C4A48B",
"[. c #CBA58B",
"{. c #CBAA8D",
"}. c #C9AA8A",
"|. c #D2AC8D",
" X c #D3AA88",
".X c #D4B18D",
"XX c #CBAC93",
"oX c #C5AB96",
"OX c #D2AE92",
"+X c #D5AE96",
"@X c #CFB194",
"#X c #CCB49B",
"$X c #C5B19A",
"%X c #D3B395",
"&X c #D4B59A",
"*X c #D5BC9D",
"=X c #DABB9C",
"-X c #D9B697",
";X c #E2BC9E",
":X c #CBADA3",
">X c #CDB8A1",
",X c #DABDA1",
"<X c #D4BAA3",
"1X c #E4B2A7",
"2X c #DFC09D",
"3X c #E0C09F",
"4X c #DBC3A4",
"5X c #DCC5AA",
"6X c #DAC6AA",
"7X c #D9C9B3",
"8X c #D6C9B3",
"9X c #E2C4A9",
"0X c #E3CAAD",
"qX c #E6C7A8",
"wX c #E4CDB3",
"eX c #EACCB4",
"rX c #EACFB9",
"tX c #E6D1B5",
"yX c #E8D3B5",
"uX c #EBD2B4",
"iX c #E6D3BB",
"pX c #ECD4BA",
"aX c #F2D5BC",
"sX c #F4DABD",
"dX c #F4D3B7",
"fX c #ECCFB1",
"gX c #BBC9C6",
"hX c #D4D3CA",
"jX c #ECD6C1",
"kX c #EEDAC3",
"lX c #E7D7C0",
"zX c #F4DBC4",
"xX c #F9DCC4",
"cX c #F3DDCA",
"vX c #F6DAC6",
"bX c #DFE0D8",
"nX c #F5E1CB",
"mX c #FAE2CC",
"MX c #FAE3C7",
"NX c #F5E2D1",
"BX c #F9E4D2",
"VX c #FBECD5",
"CX c #FAEDD8",
"ZX c #F4ECD5",
/* pixels */
"J R #.#.;.;.2.%.;.2.4.5.8.u.l.c.v.v.c.c.c.v.v.n.B.B.G.G.E.E.E.`.`.}.XX&X*X5X0XwXtXuXuXtX0X*X!.3.k a ",
"J J E #.;.;.;.%.;.2.;.5.7.8.l.v.c.c.v.v.v.v.v.n.B.B.D.G.G.E.E.(.].{.@X&X*X5X0XwXtXuXyXuX0X4X}.3.p p ",
"v J R #.;.;.;.;.;.;.;.4.7.u.u.v.c.c.c.v.v.u.d.B.D.G.D.G.G.E.(.`.`.{.@X%X*X6X5XwXtXtXyXyXuX0X@X3.p a ",
"v J R #.;.;.;.;.;.;.2.4.y.u.u.v.c.c.c.v.v.d.v.G.G.G.B.D.E.E.(.`.`.[.@X%X*X6X5XwXtXuXyXuXuX0X&X3.p p ",
"c J K +.-.;.;.2.2.2.2.4.y.8.u.c.c.c.c.v.v.v.b.B.S.B.D.C.E.E.E.`.`.{.@X%X*X6X0XtXuXuXpXuXuXuX*X3.u k ",
"c J R #.#.;.4.5.5.4.4.5.y.y.u.l.c.c.c.v.b.B.B.B.B.S.G.D.G.E.E.].[.XX@X&X,X5XwXtXuXpXpXpXpXuX*X;.u F ",
"c J K +.-.;.4.7.7.7.5.5.7.8.u.c.c.c.v.v.n.B.B.B.B.G.G.D.G.J.E.].{.XX%X&X,X5XtXtXpXpXpXpXsXsX4X:.u F ",
"c v J +.%.4.7.y.y.y.7.7.y.y.u.v.c.v.v.n.n.B.B.B.B.S.G.G.G.J.E.].XX@X%X*X4X5XwXpXpXpXsXsXzXsX4XE y H ",
"j v J +.%.4.y.y.y.y.y.8.u.u.c.c.v.v.n.n.n.B.B.B.B.B.G.G.G.E.].{.XX&X&X*X,X5XtXpXkXzXzXzXxXMX4XH p H ",
"j v n +.%.4.7.y.u.u.u.u.c.l.c.c.v.v.n.n.n.n.B.B.B.B.G.G.G.(.].XX#X&X&X&X=X5XiXkXzXzXzXxXMXMX$Xk k y ",
"c v K +.%.5.8.u.v.v.u.u.v.v.c.c.v.v.B.B.n.n.b.n.B.B.G.G.J.].XX#X&X&X@X%X=X0XjXcXnXcXvXMXmXMXV.p F p ",
"v J R #.%.5.8.u.v.v.v.c.v.v.c.c.v.v.n.n.b.v.v.b.B.B.S.G.E.].XX#XoXXX@X&X,XwXkXnXnXmXmXmXmXzX! i u h ",
"l v R $.;.5.8.d.v.v.n.v.v.v.v.v.v.b.b.n.b.v.v.v.n.B.C.J.E.].XX#XXX#X*X4X5XiXkXcXnXnXnXmXmXuXi p 8 j ",
"2 t c +.>.5.u.c.v.n.B.B.n.v.v.v.v.b.b.b.b.v.v.b.B.B.G.G.E.].oX#X&X<X6X7XiXlXiXtX6X7XzXmXBX>Xy u 9 G ",
"o $ 4 l #.5.u.c.v.n.B.B.B.B.b.b.n.b.b.n.b.b.v.b.B.B.G.G.E.].XX#X4X6X7XwX7X<X#X$X$X>XwXmXBXW.k G z G ",
"  . + & l ;.8.v.n.n.B.C.C.B.B.b.B.B.B.B.B.b.v.B.C.D.G.G.E.].oX>X6X<X#X~.W.z.l.S.~.>X6XkXmXu.w.w.v F ",
"o . O O * k ;.u.v.n.B.B.C.B.B.B.B.B.C.C.C.C.n.C.C.G.G.G.G.!.~.~.W.z.t.3.! Y 3.a.R.oX$X7XzX6.e.w.G H ",
"v 8 $ + + * i #.7.c.B.B.B.B.B.B.C.C.D.D.D.H.G.G.G.G.G.v.l.V.a.! F a i B T Y :.a.R.oX>X#X0Xe. .=.k ` ",
"*.*.+.j 4 = = y E ;.u.b.b.B.B.C.C.D.F.H.H.J.J.G.B.v.i.-.L F a 0 4 4 0 p :.S.].oX>X5XiXkX,X|  .b u Q ",
"@.*.*.&.[ v u y p K ;.y.v.b.B.B.A.G.H.J.J.J.J.G.b.5.-.k i 0 i p T L y.J.%X0XuXaXzXmXCXCX+X .e.z u F ",
"e f g m [ [ +.K c G K -.7.c.b.B.C.H.J.(.K.J.J.G.v.3.:.E 3.a.v.B.J.'.'. X|.;XeXaXxXmXCXCXU.j.K u k 2 ",
"1 e g g [ @.+.+.+.+.R E ;.u.v.n.C.J.(.'.'.K.(.E.G.S.B.W.}.|.{.'.K.F.Z.L.K..XqXdXxXxXCXnXU.w.u w k 0 ",
"; < d [ *.0.0.@.@.@.+.+.#.5.d.v.C.J.(.'.'.'.[.].}.{.%X-X-X.X}.N.,.=.w.h.L._.;XqXdXxXCXzXP.w w 0 0 0 ",
"+ + $ & 4 K q.q.*.&.$.+.+.;.8.d.n.H.(.[.|.|.OX%X%X-X-X-X.X'.m.{ { =.w.N.).-XeXdXdXxXVXpX:.4 4 0 * * ",
"+ $ = = . . @ +.d.%.&.$.K K %.8.c.C.(.{.%X%X=X=X=X=X.X X'.d.g { } =.X.3.S.<X9XfXxXmXCXW.2 4 4 = % * ",
"& # s D o .     B >.$.$.K c v %.8.C.(.|.&X,X4X4X=X.XK.K.b.{ [ d + o . V T.t.! W.uXmXCXY & 2 i - - q ",
"0 # 4 B - o   . D - L +.J j d v ;.b.(.OX4X4X0X0X=XK.Z.M...x @ X   o - T.bXhXA.G.&XzXNX4 2 u B C Z _ ",
"y 2 ; 4 B = + X + q # v J d 7 d K d.K.%X0XwXuXuX=XF.f.,.x 4 @ X X * ' gXbX:X<XrXuXmX8X# 8 p 0 H / p.",
"u 8 9 h l l l z l z 5 9 J 9 5 5 x 5.H.%X9XpXpXuX=XN.*.X.> > & + X M T.hX:X:XjXaXsXBXR.2 w p B H I ' ",
"h 9 h b $.1.<.1.>.;.+.v j 5 : : d #.C.XX5XpXpXuX4XM.=.x , , e e h Y a.V.].wXzXxXxXCXR.N N P Q / ( T.",
"h d h b *.6.q.d.u.<.$.v d 5 ; ; 6 K b.XX5XpXaXuX4XF.=...g r x X.<.g.E.*XwXaXxXxXmXCXx.I I I / / ^ Y.",
"t h j K $.6.d.d.u.6.1.v d 5 : : 6 b v.].5XpXpXuX4XE.q.,...[ ..*.d.F.|.9XfXsXsXxXmXCXU I C I / ~ ^ _ ",
"8 h v K $.9.q.d.d.6.$.n d 5 < 1 6 x g.].,XrXpXuX4X@XH.m.q.,.9.f.Z.'.-XqXeXaXsXxXVXcXQ C V ^ ^ ~ A ) ",
"2 h x K 1.6.u.8.9.>.+.b d 7 5 5 6 x g.].*X0XpXdX0X,X{.(.C.f.f.N.K.%X3XqXfXaXxXmXCX8XI V C S Z A A _ ",
"# u j b $.<.8.6.9.*.+.b f 9 7 7 7 x g.).&X0XaXaXdX0X=XXX(.G.F.F.(.OX=X9X0XaXvXmXCXR.S I Z A S Z V _ ",
"@ 4 h b $.<.u.d.6.>.+.b f 9 7 7 7 x b.).&X0XjXvXzXaX0X&X[.E.E.(.(.[.+X,X0XzXcXBXNXI I C V V V I S ) ",
"+ # e v X.<.6.d.u.9.$.b f 7 5 7 7 [ n.).+XwXcXmXmXvXuX=X[.(.(.(.).[.OX;XeXvXBXVX:XZ S S I C V Z I ^ ",
"# ; 9 h X.1.6.g.g.6.$.n d 5 5 5 7 X.b.(.+XrXNXBXBXnXpX=X[.(.K.K.).[.%X9XaXcXBXCX' ^ C V C Z Z ~ Z ) ",
"C 8 j z L 1.u.f.m.f.,.n 6 : < 5 5 b c.(.&XiXNXBXBXcXuX=X(.L.L.K.).OX,XeXvXBXBX8XV V C S S V V V C / ",
"I C G L L 1.d.m.M.M.d..., @ ; 5 5 x d.(.=XjXNXBXnXzXeX|.L.N.Z.K.).%X9XpXcXBXNXT.C N S Z S Z Z Z C ^ ",
"I I C U Y :.d.C.Z.F.Z.M.[ , : : 5 r ,.(.=XjXNXBXcXpX9X XN.m.N.Z.).-X9XzXcXcX^.^ I V C Z Z S V V V ^ ",
"/ S S P P U t.C.L.K.I.K.q.x 6 3 3 e =.L.=XkXNXcXjXeXeX|.N.q.f.Z.).%X9XaXvX~.S I I Z V V I C Z V Z ( ",
"I I I P I S S ` ` p.a.i.#.v 6 , 5 e ..Z.=XjXcXcXrXeXaX=X XK.M.Z.'.&X9X$Xp./ I I ~ N I I C A S C ~ _ ",
"/ I I S P S I S I W I S U H z 7 5 e ..N.%XpXcXzXaXzXeX2X9X4X#X~.p.U / V V I I I I I I I I A ^ ( ^ / ",
") I I I I I S I I I P I I I B j d f =.N.OXrXcXzXpXeXqXfXuX~.` P V C I N V I S / I S / I I ~ ^ / ( ) ",
"^ I I S S I I I P S I S / I P u t K q.F.|.0XuX0X9X0XuXuXR.V N N V I / S N P V I S V / V ~ ~ / ^ ) _ ",
"W W I I Q W I P / / I / / / I I i r $.G.(.K.|.,X9X;X1Xz.S N C N V / V S V I I P S / / Z I I ( ) ( ' ",
"W / I I I I I I / I I / ^ I I I S 3 r o.h.k.P.P.P.1XQ.P S V V N S I I V V V V N S S S Z I I / ^ / _ ",
"/ I I I I P / I I I Q / / I I I I B r ] O.O.O.k._.Q.I V V N V N N I S V C V V S V N S S S ^ I A ^ _ ",
"S I I I Q I S I I I I / U I I ^ / ^ I :.s.s.r.s.` I I V I N V N V I N V N S N N S N V V S ^ S V C ( "
};
